<?xml version="1.0" encoding="UTF-8"?>
<svg viewBox="0 0 28 22" version="1.1" xmlns="http://www.w3.org/2000/svg" xmlns:xlink="http://www.w3.org/1999/xlink">
    <defs>
        <filter x="-1.9%" y="-11.8%" width="103.7%" height="123.5%" filterUnits="objectBoundingBox" id="filter-1">
            <feOffset dx="0" dy="0" in="SourceAlpha" result="shadowOffsetOuter1"></feOffset>
            <feGaussianBlur stdDeviation="2" in="shadowOffsetOuter1" result="shadowBlurOuter1"></feGaussianBlur>
            <feColorMatrix values="0 0 0 0 0   0 0 0 0 0   0 0 0 0 0  0 0 0 0.2 0" type="matrix" in="shadowBlurOuter1" result="shadowMatrixOuter1"></feColorMatrix>
            <feMerge>
                <feMergeNode in="shadowMatrixOuter1"></feMergeNode>
                <feMergeNode in="SourceGraphic"></feMergeNode>
            </feMerge>
        </filter>
    </defs>
    <g id="Mobile" stroke="none" stroke-width="1" fill="none" fill-rule="evenodd">
        <g id="Owner" transform="translate(-267.000000, -15.000000)" fill="#000000" fill-rule="nonzero">
            <g id="Group-6"  transform="translate(-2.000000, 0.000000)">
                <g id="menu-(1)" transform="translate(273.000000, 19.000000)">
                    <path d="M19.1921094,6 L0.807890625,6 C0.36171875,6 0,6.44768398 0,7 C0,7.55231602 0.36171875,8 0.807890625,8 L19.1921094,8 C19.6383203,8 20,7.55231602 20,7 C20,6.44773233 19.6383203,6 19.1921094,6 Z" id="Shape"></path>
                    <path d="M19.1921094,0 L0.807890625,0 C0.36171875,0 0,0.447732328 0,1 C0,1.55226767 0.36171875,2 0.807890625,2 L19.1921094,2 C19.6383203,2 20,1.55226767 20,1 C20,0.447732328 19.6383203,0 19.1921094,0 Z" id="Shape"></path>
                    <path d="M19.1921094,12 L0.807890625,12 C0.36171875,12 0,12.447684 0,13 C0,13.552316 0.36171875,14 0.807890625,14 L19.1921094,14 C19.6383203,14 20,13.552316 20,13 C20,12.447684 19.6383203,12 19.1921094,12 Z" id="Shape"></path>
                </g>
            </g>
        </g>
    </g>
</svg>