<?xml version="1.0" encoding="UTF-8"?>
<svg viewBox="0 0 33 34" version="1.1" xmlns="http://www.w3.org/2000/svg" xmlns:xlink="http://www.w3.org/1999/xlink">
    <defs></defs>
    <g id="Mobile" stroke="none" stroke-width="1" fill="none" fill-rule="evenodd">
        <g id="Owner" transform="translate(-145.000000, -134.000000)" fill="#000000" fill-rule="nonzero">
            <g id="Group-3" transform="translate(11.000000, 93.000000)">
                <g id="stopwatch" transform="translate(134.000000, 41.000000)">
                    <path d="M17.4296897,21.5271 C18.0219828,21.4812 18.561931,21.1803 18.9124138,20.7003333 L24.2396379,13.3654 C24.402931,13.1404333 24.3784655,12.8299 24.1804655,12.6327 C23.9824655,12.4360667 23.6706724,12.4117 23.4447931,12.5737667 L16.0789655,17.8811667 C15.5987586,18.2291 15.2966379,18.7668667 15.2505517,19.3567667 C15.2044655,19.9466667 15.4189655,20.5241 15.8382931,20.9417333 C16.220069,21.3225333 16.7349828,21.5333333 17.2703793,21.5333333 C17.3232931,21.5333333 17.3762069,21.5310667 17.4296897,21.5271 Z M16.385069,19.4451667 C16.4049828,19.1862 16.5381207,18.9499 16.7475,18.7980333 L21.2406207,15.5606667 L17.9912586,20.0345 C17.8376379,20.2447333 17.6003793,20.3767667 17.3403621,20.3971667 C17.0814828,20.4141667 16.8271552,20.3246333 16.6422414,20.1404667 C16.4590345,19.9574333 16.3645862,19.7035667 16.385069,19.4451667 Z" id="Shape"></path>
                    <path d="M30.1745172,11.0862667 C30.1688276,11.0743667 30.1688276,11.0619 30.162569,11.05 C30.1557414,11.0386667 30.144931,11.0324333 30.1375345,11.0216667 C29.5623103,10.0390667 28.8818276,9.12503333 28.1091724,8.29656667 L29.3313103,7.07993333 L30.1358276,7.8812 L32.5493793,5.47683333 L30.1358276,3.07303333 L27.7217069,5.47683333 L28.5267931,6.27866667 L27.3046552,7.4953 C26.4728276,6.72576667 25.5556552,6.04746667 24.5685,5.47456667 C24.5576897,5.4672 24.551431,5.45643333 24.5400517,5.44963333 C24.5281034,5.44283333 24.5155862,5.4434 24.5036379,5.43716667 C22.7438276,4.42736667 20.7666724,3.75473333 18.6586552,3.50823333 L18.6586552,2.83333333 L19.5121034,2.83333333 C20.2967069,2.83333333 20.9345172,2.1981 20.9345172,1.41666667 C20.9345172,0.635233333 20.2961379,0 19.5115345,0 L14.3908448,0 C13.6062414,0 12.968431,0.635233333 12.968431,1.41666667 C12.968431,2.1981 13.6062414,2.83333333 14.3908448,2.83333333 L15.2442931,2.83333333 L15.2442931,3.4884 C14.6298103,3.55356667 14.0164655,3.6533 13.4099483,3.79156667 C13.1038448,3.86126667 12.9121034,4.16556667 12.9826552,4.47043333 C13.0526379,4.7753 13.3581724,4.96683333 13.6642759,4.896 C14.1877241,4.77643333 14.7162931,4.68633333 15.246,4.6257 L15.8565,4.57866667 C16.0431207,4.5645 16.2149483,4.5543 16.3822241,4.54636667 L16.3822241,5.66666667 C16.3822241,5.98003333 16.6365517,6.23333333 16.9511897,6.23333333 C17.2658276,6.23333333 17.5201552,5.98003333 17.5201552,5.66666667 L17.5201552,4.55033333 C19.6600345,4.64836667 21.6764483,5.2207 23.4692586,6.1625 L22.9082586,7.1298 C22.7512241,7.40123333 22.8445345,7.74746667 23.1165,7.90386667 C23.2058276,7.95543333 23.3036897,7.9798 23.4004138,7.9798 C23.5972759,7.9798 23.7884483,7.87836667 23.8937069,7.69646667 L24.453,6.73143333 C26.2332931,7.85626667 27.7456034,9.36246667 28.875,11.1355667 L27.9060517,11.6926 C27.6346552,11.849 27.5413448,12.1952333 27.6989483,12.4666667 C27.8047759,12.6485667 27.9953793,12.75 28.1922414,12.75 C28.2889655,12.75 28.3868276,12.7256333 28.4761552,12.6740667 L29.4473793,12.1153333 C30.4060862,13.9264 30.9824483,15.9675333 31.0683621,18.1327667 L29.9446552,18.1327667 C29.6300172,18.1327667 29.3756897,18.3860667 29.3756897,18.6994333 C29.3756897,19.0128 29.6300172,19.2661 29.9446552,19.2661 L31.0683621,19.2661 C30.9824483,21.4313333 30.4060862,23.4724667 29.4473793,25.2835333 L28.4761552,24.7248 C28.2041897,24.5684 27.8559828,24.6602 27.6989483,24.9322 C27.5419138,25.2036333 27.6352241,25.5498667 27.9071897,25.7062667 L28.8761379,26.2633 C27.7467414,28.0364 26.234431,29.5426 24.4541379,30.6674333 L23.8948448,29.7024 C23.7372414,29.4304 23.3884655,29.3380333 23.1176379,29.495 C22.8451034,29.6514 22.7517931,29.9982 22.9093966,30.2690667 L23.4703966,31.2363667 C21.6775862,32.1781667 19.6611724,32.7505 17.5212931,32.8485333 L17.5212931,31.7333333 C17.5212931,31.4199667 17.2669655,31.1666667 16.9523276,31.1666667 C16.6376897,31.1666667 16.3833621,31.4199667 16.3833621,31.7333333 L16.3833621,32.8530667 C15.4747241,32.8219 14.5632414,32.7085667 13.6659828,32.5034333 C13.3598793,32.4303333 13.0543448,32.6241333 12.9843621,32.929 C12.9138103,33.2338667 13.1055517,33.5381667 13.4116552,33.6078667 C14.5473103,33.8685333 15.707431,34 16.8584483,34 C16.8863276,34 16.913069,33.9983 16.9409483,33.9977333 C16.944931,33.9977333 16.9477759,34 16.9511897,34 C16.9557414,34 16.9597241,33.9971667 16.9642759,33.9971667 C19.6992931,33.9784667 22.2653276,33.2429333 24.485431,31.9724667 C24.503069,31.9645333 24.5218448,31.9605667 24.5389138,31.9503667 C24.5502931,31.9435667 24.5565517,31.9328 24.5673621,31.9254333 C26.8654138,30.5915 28.7856724,28.6812667 30.1278621,26.3942 C30.1386724,26.3789 30.1523276,26.367 30.162,26.35 C30.1688276,26.3381 30.1682586,26.3256333 30.1739483,26.3137333 C31.4734655,24.0697333 32.2205172,21.471 32.2205172,18.7 C32.2205172,15.929 31.4734655,13.3302667 30.1745172,11.0862667 Z M30.1352586,4.67556667 L30.9397759,5.47683333 L30.1352586,6.27866667 L29.3301724,5.47683333 L30.1352586,4.67556667 Z M16.3822241,3.4119 L16.3822241,1.7 L14.3908448,1.7 C14.2343793,1.7 14.1063621,1.5725 14.1063621,1.41666667 C14.1063621,1.26083333 14.2343793,1.13333333 14.3908448,1.13333333 L19.5115345,1.13333333 C19.668,1.13333333 19.7960172,1.26083333 19.7960172,1.41666667 C19.7960172,1.5725 19.668,1.7 19.5115345,1.7 L17.5201552,1.7 L17.5201552,3.4119 C17.3221552,3.40396667 17.1332586,3.4 16.9511897,3.4 C16.9352586,3.4 16.9170517,3.40113333 16.9011207,3.40113333 C16.8868966,3.40113333 16.8726724,3.4 16.8584483,3.4 C16.7651379,3.4 16.6718276,3.40623333 16.5785172,3.40793333 C16.5125172,3.40963333 16.4505,3.40906667 16.3822241,3.4119 Z" id="Shape"></path>
                    <path d="M11.8305,7.93333333 L8.98567241,7.93333333 C8.67103448,7.93333333 8.4167069,8.18663333 8.4167069,8.5 C8.4167069,8.81336667 8.67103448,9.06666667 8.98567241,9.06666667 L11.8305,9.06666667 C12.1451379,9.06666667 12.3994655,8.81336667 12.3994655,8.5 C12.3994655,8.18663333 12.1451379,7.93333333 11.8305,7.93333333 Z" id="Shape"></path>
                    <path d="M11.8305,11.9 L6.14084483,11.9 C5.8262069,11.9 5.57187931,12.1533 5.57187931,12.4666667 C5.57187931,12.7800333 5.8262069,13.0333333 6.14084483,13.0333333 L11.8305,13.0333333 C12.1451379,13.0333333 12.3994655,12.7800333 12.3994655,12.4666667 C12.3994655,12.1533 12.1451379,11.9 11.8305,11.9 Z" id="Shape"></path>
                    <path d="M11.8305,15.8666667 L3.29601724,15.8666667 C2.98137931,15.8666667 2.72705172,16.1199667 2.72705172,16.4333333 C2.72705172,16.7467 2.98137931,17 3.29601724,17 L11.8305,17 C12.1451379,17 12.3994655,16.7467 12.3994655,16.4333333 C12.3994655,16.1199667 12.1451379,15.8666667 11.8305,15.8666667 Z" id="Shape"></path>
                    <path d="M11.8305,19.8333333 L1.02015517,19.8333333 C0.705517241,19.8333333 0.451189655,20.0866333 0.451189655,20.4 C0.451189655,20.7133667 0.705517241,20.9666667 1.02015517,20.9666667 L11.8305,20.9666667 C12.1451379,20.9666667 12.3994655,20.7133667 12.3994655,20.4 C12.3994655,20.0866333 12.1451379,19.8333333 11.8305,19.8333333 Z" id="Shape"></path>
                    <path d="M11.8305,23.8 L4.43394828,23.8 C4.11931034,23.8 3.86498276,24.0533 3.86498276,24.3666667 C3.86498276,24.6800333 4.11931034,24.9333333 4.43394828,24.9333333 L11.8305,24.9333333 C12.1451379,24.9333333 12.3994655,24.6800333 12.3994655,24.3666667 C12.3994655,24.0533 12.1451379,23.8 11.8305,23.8 Z" id="Shape"></path>
                    <path d="M11.8305,27.7666667 L7.84774138,27.7666667 C7.53310345,27.7666667 7.27877586,28.0199667 7.27877586,28.3333333 C7.27877586,28.6467 7.53310345,28.9 7.84774138,28.9 L11.8305,28.9 C12.1451379,28.9 12.3994655,28.6467 12.3994655,28.3333333 C12.3994655,28.0199667 12.1451379,27.7666667 11.8305,27.7666667 Z" id="Shape"></path>
                </g>
            </g>
        </g>
    </g>
</svg>