<?xml version="1.0" encoding="UTF-8"?>
<svg width="22px" height="23px" viewBox="0 0 22 23" version="1.1" xmlns="http://www.w3.org/2000/svg" xmlns:xlink="http://www.w3.org/1999/xlink">
    <defs>
        <filter x="-1.9%" y="-11.8%" width="103.7%" height="123.5%" filterUnits="objectBoundingBox" id="filter-1">
            <feOffset dx="0" dy="0" in="SourceAlpha" result="shadowOffsetOuter1"></feOffset>
            <feGaussianBlur stdDeviation="2" in="shadowOffsetOuter1" result="shadowBlurOuter1"></feGaussianBlur>
            <feColorMatrix values="0 0 0 0 0   0 0 0 0 0   0 0 0 0 0  0 0 0 0.2 0" type="matrix" in="shadowBlurOuter1" result="shadowMatrixOuter1"></feColorMatrix>
            <feMerge>
                <feMergeNode in="shadowMatrixOuter1"></feMergeNode>
                <feMergeNode in="SourceGraphic"></feMergeNode>
            </feMerge>
        </filter>
    </defs>
    <g id="Mobile" stroke="none" stroke-width="1" fill="none" fill-rule="evenodd">
        <g id="Menu" transform="translate(-270.000000, -15.000000)" fill="#000000" fill-rule="nonzero">
            <g id="Group-6" transform="translate(-2.000000, 0.000000)">
                <g id="menu-(1)" transform="translate(275.000000, 18.000000)">
                    <g id="Group-3">
                        <path d="M17.1921094,7 L-1.19210938,7 C-1.63828125,7 -2,7.44773233 -2,8 C-2,8.55226767 -1.63828125,9 -1.19210938,9 L17.1921094,9 C17.6383203,9 18,8.55226767 18,8 C18,7.44773233 17.6383203,7 17.1921094,7 Z" id="Shape" transform="translate(8.000000, 8.000000) rotate(-45.000000) translate(-8.000000, -8.000000) "></path>
                        <path d="M17.1921094,7 L-1.19210938,7 C-1.63828125,7 -2,7.44768398 -2,8 C-2,8.55231602 -1.63828125,9 -1.19210938,9 L17.1921094,9 C17.6383203,9 18,8.55231602 18,8 C18,7.44768398 17.6383203,7 17.1921094,7 Z" id="Shape" transform="translate(8.000000, 8.000000) rotate(45.000000) translate(-8.000000, -8.000000) "></path>
                    </g>
                </g>
            </g>
        </g>
    </g>
</svg>