<?xml version="1.0" encoding="UTF-8"?>
<svg viewBox="0 0 16 13" version="1.1" xmlns="http://www.w3.org/2000/svg" xmlns:xlink="http://www.w3.org/1999/xlink">
    <defs>
        <polygon id="path-1" points="10.1965903 8.14285714 2.37920439 8.14285714 1.01965903 7.46428571 0.339886342 6.10714286 0.339886342 4.75 1.35954537 3.39285714 2.71909074 3.05357143 3.39886342 2.71428571 3.39886342 2.375 3.39886342 2.03571429 4.75840879 0.678571429 5.77806781 0.339285714 7.13761318 0.339285714 8.83704489 1.69642857 9.17693123 2.375 9.51681758 3.73214286 10.5364766 3.73214286 11.5561356 4.75 11.896022 6.10714286 11.5561356 7.125"></polygon>
        <filter x="-26.0%" y="-38.4%" width="151.9%" height="176.9%" filterUnits="objectBoundingBox" id="filter-2">
            <feOffset dx="0" dy="0" in="SourceAlpha" result="shadowOffsetOuter1"></feOffset>
            <feGaussianBlur stdDeviation="1" in="shadowOffsetOuter1" result="shadowBlurOuter1"></feGaussianBlur>
            <feColorMatrix values="0 0 0 0 0   0 0 0 0 0   0 0 0 0 0  0 0 0 0.2 0" type="matrix" in="shadowBlurOuter1"></feColorMatrix>
        </filter>
    </defs>
    <g id="Mobile" stroke="none" stroke-width="1" fill="none" fill-rule="evenodd">
        <g id="Owner" transform="translate(-79.000000, -284.000000)">
            <g id="Group-9" transform="translate(77.000000, 281.000000)">
                <g id="Group-7" transform="translate(3.915491, 4.750000)">
                    <g id="Path-6">
                        <use fill="black" fill-opacity="1" filter="url(#filter-2)" xlink:href="#path-1"></use>
                        <use fill="#000000" fill-rule="evenodd" xlink:href="#path-1"></use>
                    </g>
                    <path d="M9.68299218,3.30485345 C9.65749474,1.47830296 8.13497089,0 6.26712252,0 C5.43624949,0 4.63576348,0.296512315 4.01318711,0.834923645 C3.45753854,1.31542241 3.07743827,1.95753818 2.92691036,2.66252709 C2.91591474,2.6624101 2.90501453,2.6623165 2.89413817,2.6623165 C1.29834197,2.6623165 0,3.93599507 0,5.50152956 C0,7.06706404 1.29834197,8.34074261 2.89416202,8.34074261 L4.91542435,8.34074261 C5.05922609,8.34074261 5.17586077,8.22636823 5.17586077,8.08524877 C5.17586077,7.94412931 5.05922609,7.82975493 4.91542435,7.82975493 L2.89416202,7.82975493 C1.58551612,7.82975493 0.520872838,6.7853165 0.520872838,5.50152956 C0.520872838,4.21774261 1.58551612,3.17330419 2.89416202,3.17330419 C2.96388046,3.17330419 3.03758213,3.17697783 3.11951262,3.18453571 C3.25837707,3.19728818 3.38304976,3.10039286 3.40196414,2.96467857 C3.49574892,2.29031897 3.83513437,1.67008128 4.35762912,1.21822291 C4.88501347,0.76212931 5.56314039,0.510964286 6.26709867,0.510964286 C7.86361041,0.510964286 9.16242942,1.78515764 9.16242942,3.35134729 C9.16242942,3.40773892 9.15815997,3.46586207 9.153652,3.52740148 L9.15172002,3.55356158 C9.14630569,3.62871921 9.1749754,3.70240271 9.23012047,3.7548867 C9.28519398,3.80737069 9.36101845,3.8332968 9.43755847,3.82578571 C9.50682373,3.8189298 9.57670913,3.81549015 9.64525884,3.81549015 C10.7733714,3.81549015 11.6912077,4.71588424 11.6912077,5.82261084 C11.6912077,6.92931404 10.7733953,7.82970813 9.64525884,7.82970813 L7.51981239,7.82970813 C7.37601066,7.82970813 7.25937597,7.94408251 7.25937597,8.08520197 C7.25937597,8.22632143 7.37601066,8.34069581 7.51981239,8.34069581 L9.64525884,8.34069581 C11.0605933,8.34069581 12.2120805,7.21110837 12.2120805,5.82261084 C12.2120566,4.44658498 11.0810103,3.32471921 9.68299218,3.30485345 Z" id="Shape" fill="#FFFFFF" fill-rule="nonzero"></path>
                    <path d="M6.26714637,1.20081404 C5.17812668,1.20081404 4.24590789,1.99921182 4.09869536,3.05792365 C4.07925625,3.19773276 4.17905165,3.32654433 4.32154154,3.34561453 C4.33349123,3.34720567 4.34534551,3.34800123 4.35705668,3.34800123 C4.48525943,3.34800123 4.59698066,3.25510714 4.61475016,3.12702094 C4.72692458,2.32022291 5.43729896,1.71180172 6.26712252,1.71180172 C6.41097196,1.71180172 6.52755894,1.59742734 6.52755894,1.45630788 C6.52758279,1.31521182 6.41097196,1.20081404 6.26714637,1.20081404 Z" id="Shape" fill="#FFFFFF" fill-rule="nonzero"></path>
                    <path d="M7.4515012,7.65332635 L6.50416045,6.82312931 C6.34084804,6.67992734 6.09446026,6.67995074 5.9310763,6.82310591 L4.98373554,7.65334975 C4.87645072,7.7473436 4.86719627,7.908867 4.96300844,8.01411576 C5.05882061,8.11931773 5.22344486,8.12846675 5.33075354,8.03444951 L5.95719388,7.48546182 L5.95719388,10.6286749 C5.95719388,10.7697943 6.07378086,10.8841687 6.2176303,10.8841687 C6.36145589,10.8841687 6.47806672,10.7697943 6.47806672,10.6286749 L6.47806672,7.48541502 L7.10453091,8.03442611 C7.15419009,8.07797167 7.21618059,8.09938177 7.27793258,8.09938177 C7.3495353,8.09938177 7.4208041,8.07062438 7.47227601,8.01409236 C7.56804048,7.9088436 7.55876217,7.7473436 7.4515012,7.65332635 Z" id="Shape" fill="#FFFFFF" fill-rule="nonzero" transform="translate(6.217618, 8.799951) rotate(180.000000) translate(-6.217618, -8.799951) "></path>
                </g>
            </g>
        </g>
    </g>
</svg>