<?xml version="1.0" encoding="UTF-8"?>
<svg viewBox="0 0 22 21" version="1.1" xmlns="http://www.w3.org/2000/svg" xmlns:xlink="http://www.w3.org/1999/xlink">
    <defs></defs>
    <g id="Page-1" stroke="none" stroke-width="1" fill="none" fill-rule="evenodd">
        <g id="Walker" transform="translate(-39.000000, -116.000000)" fill="#FFFFFF" fill-rule="nonzero">
            <g id="Group-11" transform="translate(10.000000, 63.000000)">
                <g id="Group-12" transform="translate(10.000000, 44.000000)">
                    <g id="Group-10">
                        <g id="edit" transform="translate(19.000000, 9.000000)">
                            <path d="M20.9256907,4.14484305 L16.9196168,0.157399103 C16.709055,-0.0524663677 16.3689166,-0.0524663677 16.1583548,0.157399103 L12.7623703,3.5367713 L2.23427863,14.0085202 C2.15869233,14.0730942 2.10470212,14.1538117 2.07230799,14.2452915 L0.0422759462,20.2883408 C-0.0549064387,20.5681614 0.101665181,20.8748879 0.382414293,20.9717489 C0.495793743,21.009417 0.614572213,21.009417 0.722552641,20.9717489 L6.79105268,18.9484305 C6.88283604,18.9161435 6.96382136,18.8623318 7.02860962,18.7869955 L17.5351052,8.29372197 L20.9256907,4.90358744 C21.1362525,4.69372197 21.1362525,4.35470852 20.9256907,4.14484305 Z M1.40822836,19.6103139 L2.81737294,15.4130045 L5.61946504,18.2058296 L1.40822836,19.6103139 Z M6.61828399,17.6730942 L3.35187606,14.4174888 L13.1403018,4.67757848 L16.3905127,7.91704036 L6.61828399,17.6730942 Z M17.1517747,7.15829596 L13.9069629,3.91883408 L16.5416853,1.29820628 L19.7810981,4.52690583 L17.1517747,7.15829596 Z" id="Shape"></path>
                        </g>
                    </g>
                </g>
            </g>
        </g>
    </g>
</svg>