<?xml version="1.0" encoding="UTF-8"?>
<svg viewBox="0 0 62 49" version="1.1" xmlns="http://www.w3.org/2000/svg" xmlns:xlink="http://www.w3.org/1999/xlink">
    <defs></defs>
    <g id="Mobile" stroke="none" stroke-width="1" fill="none" fill-rule="evenodd">
        <g id="Login" transform="translate(-130.000000, -131.000000)">
            <g id="Group" transform="translate(130.000000, 133.000000)">
                <g id="Group-4">
                    <g id="Group-2" stroke="#000000" stroke-linecap="round" stroke-width="2.49307479">
                        <path d="M15,0 C8.01716864,3.56861246 3.85050197,7.69141948 2.5,12.3684211 C0.474247038,19.3839234 1.64411592,34.6315789 5,34.6315789 C7.23725605,34.6315789 8.90392272,28.8596491 10,17.3157895" id="Path-4"></path>
                        <path d="M60,0 C53.0171686,3.56861246 48.850502,7.69141948 47.5,12.3684211 C45.474247,19.3839234 46.6441159,34.6315789 50,34.6315789 C52.2372561,34.6315789 53.9039227,28.8596491 55,17.3157895" id="Path-4" transform="translate(53.251023, 17.315789) scale(-1, 1) translate(-53.251023, -17.315789) "></path>
                    </g>
                    <ellipse id="Oval" fill="#000000" cx="41.875" cy="17.9342105" rx="3.125" ry="3.09210526"></ellipse>
                    <path d="M13.2499695,17.3157895 C13.2499695,12.9771816 17.3750305,9.89473684 21.7500305,9.89473684 C26.1250305,9.89473684 30,12.3684211 30,17.3157895 C30,22.2631579 23.2499695,30.9210526 21.7500305,30.9210526 C20.2500916,30.9210526 13.2499695,21.6543973 13.2499695,17.3157895 Z" id="Path-5" fill="#000000"></path>
                    <ellipse id="Oval" fill="#FAFAFA" cx="21.875" cy="17.9342105" rx="3.125" ry="3.09210526"></ellipse>
                    <polygon id="Path-6" stroke="#000000" stroke-width="2.49307479" stroke-linecap="round" stroke-linejoin="round" points="26.9999695 34.6315789 36.25 34.6315789 31.7500305 39.5789474"></polygon>
                    <path d="M31.7500305,39.5789474 C32.2500102,43.7017544 33.9166768,45.7631579 36.7500305,45.7631579 C39.5833842,45.7631579 41.5000407,44.5263158 42.5,42.0526316" id="Path-7" stroke="#000000" stroke-width="2.49307479" stroke-linecap="round"></path>
                    <path d="M20.7499695,39.5789474 C21.2499491,43.7017544 22.9166158,45.7631579 25.7499695,45.7631579 C28.5833232,45.7631579 30.4999797,44.5263158 31.499939,42.0526316" id="Path-7" stroke="#000000" stroke-width="2.49307479" stroke-linecap="round" transform="translate(26.124954, 42.671053) scale(-1, 1) translate(-26.124954, -42.671053) "></path>
                </g>
            </g>
        </g>
    </g>
</svg>