<?xml version="1.0" encoding="UTF-8"?>
<svg viewBox="0 0 30 22" version="1.1" xmlns="http://www.w3.org/2000/svg" xmlns:xlink="http://www.w3.org/1999/xlink">
    <defs>
        <polygon id="path-1" points="20.90301 17.1428571 4.87736901 17.1428571 2.090301 15.7142857 0.696767001 12.8571429 0.696767001 10 2.787068 7.14285714 5.57413601 6.42857143 6.96767001 5.71428571 6.96767001 5 6.96767001 4.28571429 9.75473802 1.42857143 11.845039 0.714285714 14.632107 0.714285714 18.115942 3.57142857 18.812709 5 19.509476 7.85714286 21.599777 7.85714286 23.690078 10 24.386845 12.8571429 23.690078 15"></polygon>
        <filter x="-19.0%" y="-27.4%" width="138.0%" height="154.8%" filterUnits="objectBoundingBox" id="filter-2">
            <feOffset dx="0" dy="0" in="SourceAlpha" result="shadowOffsetOuter1"></feOffset>
            <feGaussianBlur stdDeviation="1.5" in="shadowOffsetOuter1" result="shadowBlurOuter1"></feGaussianBlur>
            <feColorMatrix values="0 0 0 0 0   0 0 0 0 0   0 0 0 0 0  0 0 0 0.2 0" type="matrix" in="shadowBlurOuter1"></feColorMatrix>
        </filter>
    </defs>
    <g id="Page-1" stroke="none" stroke-width="1" fill="none" fill-rule="evenodd">
        <g id="Walker" transform="translate(-254.000000, -115.000000)">
            <g id="Group-11" transform="translate(10.000000, 63.000000)">
                <g id="Group-12" transform="translate(10.000000, 44.000000)">
                    <g id="Group-16" transform="translate(220.000000, 0.000000)">
                        <g id="Group-9">
                            <g id="Group-7" transform="translate(17.000000, 10.000000)">
                                <g id="Path-6">
                                    <use fill="black" fill-opacity="1" filter="url(#filter-2)" xlink:href="#path-1"></use>
                                    <use fill="#000000" fill-rule="evenodd" xlink:href="#path-1"></use>
                                </g>
                                <path d="M19.850134,6.95758621 C19.7978642,3.11221675 16.6766903,0 12.8476012,0 C11.1443114,0 9.50331514,0.624236453 8.22703358,1.75773399 C7.087954,2.76931034 6.30874846,4.121133 6.00016625,5.6053202 C5.97762522,5.60507389 5.95527978,5.60487685 5.93298324,5.60487685 C2.66160105,5.60487685 0,8.28630542 0,11.5821675 C0,14.8780296 2.66160105,17.5594581 5.93303213,17.5594581 L10.0766199,17.5594581 C10.3714135,17.5594581 10.6105146,17.31867 10.6105146,17.0215764 C10.6105146,16.7244828 10.3714135,16.4836946 10.0766199,16.4836946 L5.93303213,16.4836946 C3.25030804,16.4836946 1.06778932,14.2848768 1.06778932,11.5821675 C1.06778932,8.87945813 3.25030804,6.68064039 5.93303213,6.68064039 C6.07595494,6.68064039 6.22704336,6.68837438 6.39500088,6.70428571 C6.67967298,6.731133 6.93525201,6.52714286 6.97402648,6.24142857 C7.16628528,4.82172414 7.86202547,3.51596059 8.93313971,2.5646798 C10.0142776,1.60448276 11.4044378,1.07571429 12.8475523,1.07571429 C16.1204013,1.07571429 18.7829803,3.7582266 18.7829803,7.05546798 C18.7829803,7.17418719 18.7742279,7.29655172 18.7649866,7.42610837 L18.761026,7.48118227 C18.7499267,7.63940887 18.8086996,7.79453202 18.921747,7.90502463 C19.0346477,8.01551724 19.1900878,8.07009852 19.3469949,8.05428571 C19.4889886,8.03985222 19.6322537,8.03261084 19.7727806,8.03261084 C22.0854114,8.03261084 23.9669757,9.92817734 23.9669757,12.2581281 C23.9669757,14.5880296 22.0854603,16.4835961 19.7727806,16.4835961 L15.4156154,16.4835961 C15.1208218,16.4835961 14.8817207,16.7243842 14.8817207,17.0214778 C14.8817207,17.3185714 15.1208218,17.5593596 15.4156154,17.5593596 L19.7727806,17.5593596 C22.6742162,17.5593596 25.034765,15.1812808 25.034765,12.2581281 C25.0347161,9.36123153 22.7160711,6.99940887 19.850134,6.95758621 Z" id="Shape" fill="#FFFFFF" fill-rule="nonzero"></path>
                                <path d="M12.8476501,2.52802956 C10.6151597,2.52802956 8.70411117,4.208867 8.40232549,6.43773399 C8.36247531,6.73206897 8.56705588,7.00325123 8.85916016,7.04339901 C8.88365702,7.04674877 8.9079583,7.04842365 8.9319662,7.04842365 C9.19478183,7.04842365 9.42381036,6.85285714 9.46023783,6.58320197 C9.69019539,4.8846798 11.1464629,3.6037931 12.8476012,3.6037931 C13.1424925,3.6037931 13.3814958,3.36300493 13.3814958,3.06591133 C13.3815447,2.768867 13.1424925,2.52802956 12.8476501,2.52802956 Z" id="Shape" fill="#FFFFFF" fill-rule="nonzero"></path>
                                <path d="M15.2755775,13.112266 L13.3335289,11.3644828 C12.9987385,11.0630049 12.4936435,11.0630542 12.1587064,11.3644335 L10.2166579,13.1123153 C9.99672397,13.310197 9.97775235,13.6502463 10.1741673,13.8718227 C10.3705823,14.0933005 10.708062,14.1125616 10.9280447,13.9146305 L12.2122475,12.758867 L12.2122475,19.3761576 C12.2122475,19.6732512 12.4512508,19.9140394 12.7461421,19.9140394 C13.0409846,19.9140394 13.2800368,19.6732512 13.2800368,19.3761576 L13.2800368,12.7587685 L14.5642884,13.9145813 C14.6660897,14.0062562 14.7931702,14.05133 14.9197618,14.05133 C15.0665474,14.05133 15.2126484,13.9907882 15.3181658,13.8717734 C15.514483,13.650197 15.4954625,13.310197 15.2755775,13.112266 Z" id="Shape" fill="#FFFFFF" fill-rule="nonzero"></path>
                            </g>
                        </g>
                    </g>
                </g>
            </g>
        </g>
    </g>
</svg>